<svg xmlns="http://www.w3.org/2000/svg" width="1440" height="860" viewBox="0 0 1440 860" role="img" aria-label="A dark constellation of Emilie El Chidiac's projects and thoughts, connected by shared idea threads.">
<rect width="1440" height="860" fill="#0B0E13"/>
<path d="M 560 300 C 588.8 305.4, 658.8 330.0, 720 330 C 781.2 330.0, 828.0 314.4, 900 300 C 972.0 285.6, 1048.0 256.8, 1120 250 C 1192.0 243.2, 1237.0 263.8, 1300 262 C 1363.0 260.2, 1439.4 244.0, 1470 240" fill="none" stroke="#E8EAED" stroke-width="1.2" stroke-linecap="round" opacity="0.28"/>
<path d="M 434 860 C 440.5 831.2, 447.3 800.8, 470 700 C 492.7 599.2, 517.7 354.4, 560 300 C 602.3 245.6, 658.2 374.6, 705 398 C 751.8 421.4, 770.5 394.4, 820 430 C 869.5 465.6, 926.0 628.4, 980 596 C 1034.0 563.6, 1062.4 272.7, 1120 250 C 1177.6 227.3, 1237.0 413.8, 1300 470 C 1363.0 526.2, 1439.4 545.4, 1470 562" fill="none" stroke="#E8EAED" stroke-width="1.2" stroke-linecap="round" opacity="0.28"/>
<path d="M 235 860 C 277.3 831.2, 385.4 757.6, 470 700 C 554.6 642.4, 642.0 588.6, 705 540 C 768.0 491.4, 751.6 435.4, 820 430 C 888.4 424.6, 1025.6 489.3, 1085 510 C 1144.4 530.7, 1125.7 541.8, 1150 545 C 1174.3 548.2, 1193.0 556.3, 1220 528 C 1247.0 499.7, 1255.0 415.5, 1300 388 C 1345.0 360.5, 1439.4 377.3, 1470 375" fill="none" stroke="#E8EAED" stroke-width="1.2" stroke-linecap="round" opacity="0.28"/>
<path d="M 0 776 C 75.6 773.1, 319.2 765.0, 420 760 C 520.8 755.0, 517.7 778.2, 560 748 C 602.3 717.8, 628.9 629.4, 655 592 C 681.1 554.6, 689.7 534.2, 705 540 C 720.3 545.8, 690.5 613.9, 740 624 C 789.5 634.1, 927.8 610.2, 980 596 C 1032.2 581.8, 1011.1 560.5, 1030 545 C 1048.9 529.5, 1065.9 514.7, 1085 510 C 1104.1 505.3, 1097.3 502.8, 1136 519 C 1174.7 535.2, 1239.9 583.3, 1300 600 C 1360.1 616.7, 1439.4 609.8, 1470 612" fill="none" stroke="#E8EAED" stroke-width="1.2" stroke-linecap="round" opacity="0.28"/>
<path d="M 560 300 C 579.8 327.9, 652.9 402.4, 670 455 C 687.1 507.6, 663.1 544.3, 655 592 C 646.9 639.7, 634.0 671.8, 625 720 C 616.0 768.2, 608.6 834.8, 605 860" fill="none" stroke="#E8EAED" stroke-width="1.2" stroke-linecap="round" opacity="0.28"/>
<path d="M 0 135 C 93.6 135.9, 390.4 134.4, 520 140 C 649.6 145.6, 633.6 166.0, 720 166 C 806.4 166.0, 906.4 148.3, 1000 140 C 1093.6 131.7, 1155.4 126.3, 1240 120 C 1324.6 113.7, 1428.6 107.7, 1470 105" fill="none" stroke="#E8EAED" stroke-width="1.2" stroke-linecap="round" opacity="0.28"/>
<text x="1408" y="236" text-anchor="end" font-family="Martian Mono" font-size="8" letter-spacing="1.1" fill="#8A919C">NEURO</text>
<text x="1408" y="518" text-anchor="end" font-family="Martian Mono" font-size="8" letter-spacing="1.1" fill="#8A919C">AI</text>
<text x="1408" y="366" text-anchor="end" font-family="Martian Mono" font-size="8" letter-spacing="1.1" fill="#8A919C">DATA</text>
<text x="1408" y="598" text-anchor="end" font-family="Martian Mono" font-size="8" letter-spacing="1.1" fill="#8A919C">GEOMETRY</text>
<text x="1408" y="98" text-anchor="end" font-family="Martian Mono" font-size="8" letter-spacing="1.1" fill="#8A919C">XR</text>
<path d="M 560.0 294.4 L 561.8 298.2 L 565.6 300.0 L 561.8 301.8 L 560.0 305.6 L 558.2 301.8 L 554.4 300.0 L 558.2 298.2 Z" fill="#E8EAED"/><text x="560" y="285" text-anchor="middle" font-family="Martian Mono" font-size="8" letter-spacing="0.8" fill="#E8EAED">SENSI</text>
<circle cx="820" cy="430" r="3.6" fill="#E8EAED"/><text x="835" y="435" text-anchor="start" font-family="Martian Mono" font-size="8" letter-spacing="0.8" fill="#E8EAED">NEUROSPACE</text>
<path d="M 1085.0 504.4 L 1086.8 508.2 L 1090.6 510.0 L 1086.8 511.8 L 1085.0 515.6 L 1083.2 511.8 L 1079.4 510.0 L 1083.2 508.2 Z" fill="#E8EAED"/>
<path d="M 1030.0 539.4 L 1031.8 543.2 L 1035.6 545.0 L 1031.8 546.8 L 1030.0 550.6 L 1028.2 546.8 L 1024.4 545.0 L 1028.2 543.2 Z" fill="#E8EAED"/>
<path d="M 705.0 534.4 L 706.8 538.2 L 710.6 540.0 L 706.8 541.8 L 705.0 545.6 L 703.2 541.8 L 699.4 540.0 L 703.2 538.2 Z" fill="#E8EAED"/>
<circle cx="655" cy="592" r="3.6" fill="#E8EAED"/>
<circle cx="1120" cy="250" r="3.6" fill="#E8EAED"/>
<circle cx="560" cy="748" r="3.6" fill="#E8EAED"/>
<path d="M 980.0 590.4 L 981.8 594.2 L 985.6 596.0 L 981.8 597.8 L 980.0 601.6 L 978.2 597.8 L 974.4 596.0 L 978.2 594.2 Z" fill="#E8EAED"/>
<circle cx="1300" cy="600" r="3.6" fill="#E8EAED"/>
<circle cx="1000" cy="140" r="3.6" fill="#E8EAED"/>
<circle cx="1300" cy="388" r="3.2" fill="none" stroke="#E8EAED" stroke-width="1.4"/><text x="1286" y="376" text-anchor="end" font-family="Source Serif 4" font-style="italic" font-size="9.5" fill="#8A919C">behavior information modeling</text>
<circle cx="720" cy="330" r="3.2" fill="none" stroke="#E8EAED" stroke-width="1.4"/>
<circle cx="740" cy="624" r="3.2" fill="none" stroke="#E8EAED" stroke-width="1.4"/>
<circle cx="705" cy="398" r="3.2" fill="none" stroke="#E8EAED" stroke-width="1.4"/>
<circle cx="720" cy="166" r="3.2" fill="none" stroke="#E8EAED" stroke-width="1.4"/>
<circle cx="670" cy="455" r="3.2" fill="none" stroke="#E8EAED" stroke-width="1.4"/><text x="683" y="459" text-anchor="start" font-family="Source Serif 4" font-style="italic" font-size="9.5" fill="#8A919C">comfort as data</text>
<circle cx="1240" cy="120" r="3.2" fill="none" stroke="#E8EAED" stroke-width="1.4"/>
<circle cx="1300" cy="470" r="3.2" fill="none" stroke="#E8EAED" stroke-width="1.4"/>
<circle cx="1136" cy="519" r="3.2" fill="none" stroke="#E8EAED" stroke-width="1.4"/>
<circle cx="625" cy="720" r="3.2" fill="none" stroke="#E8EAED" stroke-width="1.4"/>
<circle cx="470" cy="700" r="3.6" fill="#E8EAED"/>
<circle cx="452" cy="779" r="3.6" fill="#E8EAED"/>
<circle cx="584" cy="624" r="3.6" fill="#E8EAED"/>
<circle cx="315" cy="765" r="3.6" fill="#E8EAED"/>
<path d="M 177.0 764.4 L 178.8 768.2 L 182.6 770.0 L 178.8 771.8 L 177.0 775.6 L 175.2 771.8 L 171.4 770.0 L 175.2 768.2 Z" fill="#E8EAED"/>
<path d="M 90.0 767.4 L 91.8 771.2 L 95.6 773.0 L 91.8 774.8 L 90.0 778.6 L 88.2 774.8 L 84.4 773.0 L 88.2 771.2 Z" fill="#E8EAED"/>
<circle cx="450" cy="759" r="3.6" fill="#E8EAED"/>
<circle cx="382" cy="762" r="3.6" fill="#E8EAED"/>
<circle cx="627" cy="644" r="3.6" fill="#E8EAED"/>
<circle cx="247" cy="767" r="3.6" fill="#E8EAED"/>
</svg>
